<?xml version="1.0" encoding="iso-8859-1"?>
<!-- Generator: Adobe Illustrator 19.0.0, SVG Export Plug-In . SVG Version: 6.00 Build 0)  -->
<svg version="1.1" id="Layer_1" xmlns="http://www.w3.org/2000/svg" xmlns:xlink="http://www.w3.org/1999/xlink" x="0px" y="0px"
	 viewBox="0 0 512 512" style="enable-background:new 0 0 512 512;" xml:space="preserve">
<path style="fill:#FB8028;" d="M46.917,10.199c-4.518,0-7.885,3.682-7.484,8.182l38.091,427.247c0.401,4.5,4.29,9.171,8.646,10.381
	l161.636,44.879c4.354,1.21,11.478,1.21,15.833,0.003l162.127-44.953c4.354-1.208,8.248-5.879,8.649-10.377l38.153-427.179
	c0.404-4.5-2.966-8.182-7.484-8.182L46.917,10.199L46.917,10.199z M183.083,292.6c4.518,0,8.542,3.682,8.946,8.182l2.413,27.042
	c0.401,4.5,4.296,9.144,8.66,10.322l44.723,12.078c4.36,1.178,7.945,2.143,7.965,2.143c0.019,0,3.603-0.966,7.965-2.144
	l44.803-12.107c4.36-1.178,8.259-5.825,8.663-10.322l4.858-54.178c0.404-4.5-2.962-8.182-7.48-8.182H142.478
	c-4.518,0-8.542-3.684-8.943-8.182l-13.305-149.064c-0.357-4.013,3.046-7.298,7.565-7.298h256.091c4.516,0,7.921,3.284,7.563,7.299
	l-4.313,47.103h-199.89c-4.518,0-7.885,3.682-7.484,8.182l3.521,39.357c0.401,4.499,4.427,8.182,8.946,8.182h182.716
	c4.024,0,7.02,3.284,6.656,7.298l-13.85,155.14c-0.225,2.525-3.969,5.58-8.323,6.787l-95.51,26.483
	c-4.354,1.206-7.972,2.205-8.039,2.219c-0.067,0.015-3.684-0.963-8.039-2.17l-95.612-26.531c-4.354-1.208-8.244-5.879-8.646-10.379
	l-6.154-69.078c-0.401-4.5,2.969-8.182,7.487-8.182L183.083,292.6L183.083,292.6z"/>
<g>
	<path style="fill:#C63F00;" d="M255.727,512c-3.784,0-7.567-0.428-10.65-1.285l-161.635-44.88
		c-8.393-2.331-15.304-10.629-16.076-19.305L29.274,19.286c-0.444-4.991,1.209-9.936,4.533-13.57C37.131,2.084,41.909,0,46.917,0
		h418.166c5.011,0,9.793,2.086,13.117,5.723c3.324,3.636,4.973,8.583,4.525,13.572l-38.153,427.173
		c-0.774,8.673-7.687,16.97-16.082,19.298l-162.127,44.953C263.28,511.573,259.502,512,255.727,512z M49.852,20.398l37.831,424.324
		c0.104,0.395,0.846,1.286,1.31,1.49l161.541,44.848c2.569,0.715,7.807,0.714,10.383,0.001l162.124-44.952
		c0.36-0.169,1.081-1.028,1.221-1.527l37.884-424.184H49.852z M256.031,419.198c-1.541,0-3.752-0.614-10.918-2.602L149.5,390.065
		c-8.391-2.326-15.304-10.623-16.077-19.3l-6.155-69.078c-0.445-4.988,1.208-9.933,4.531-13.568
		c3.325-3.634,8.104-5.719,13.114-5.719h38.168c9.835,0,18.226,7.674,19.103,17.471l2.408,26.972
		c0.135,0.467,0.802,1.261,1.238,1.475l44.651,12.057c2.036,0.55,3.901,1.053,5.303,1.43c1.403-0.377,3.27-0.881,5.308-1.432
		l44.73-12.088c0.439-0.215,1.109-1.013,1.244-1.482l4.589-51.175H142.479c-9.838,0-18.228-7.676-19.102-17.475l-13.305-149.063
		c-0.415-4.675,1.109-9.162,4.29-12.641c3.351-3.662,8.248-5.762,13.433-5.762h256.091c0.001,0,0.003,0,0.004,0
		c5.181,0,10.075,2.101,13.426,5.762c3.183,3.478,4.707,7.968,4.292,12.64l-4.316,47.13c-0.48,5.249-4.883,9.269-10.156,9.269
		H190.182l3.161,35.323h181.603c4.775,0,9.331,1.991,12.502,5.461c3.172,3.474,4.743,8.197,4.311,12.958l-13.851,155.126
		c-0.715,8.029-8.427,13.675-15.754,15.708l-95.512,26.484c-8.159,2.26-8.246,2.278-8.566,2.351
		C257.274,419.075,256.719,419.198,256.031,419.198z M155.022,370.429l95.545,26.511c2.186,0.606,3.959,1.091,5.243,1.439
		c1.424-0.393,3.321-0.917,5.384-1.489l95.509-26.483c0.418-0.115,0.799-0.273,1.119-0.432l13.28-148.765H192.229
		c-9.84,0-18.233-7.677-19.105-17.477l-3.52-39.353c-0.446-4.992,1.207-9.937,4.53-13.572c3.324-3.634,8.102-5.718,13.111-5.718
		h190.582l3.115-34.005H130.73l12.865,144.145H314.6c5.01,0,9.79,2.086,13.113,5.721s4.973,8.583,4.525,13.573l-4.859,54.176
		c-0.78,8.701-7.729,16.98-16.163,19.258l-44.801,12.106c-9.246,2.498-9.246,2.498-10.625,2.498c-1.382,0-1.382,0-10.623-2.495
		l-44.723-12.077c-8.437-2.279-15.384-10.56-16.159-19.265l-2.315-25.929h-34.121l5.887,66.084
		C153.871,369.371,154.567,370.207,155.022,370.429z"/>
	<path style="fill:#C63F00;" d="M190.727,55.077H77.517c-5.632,0-10.199-4.567-10.199-10.199s4.567-10.199,10.199-10.199h113.21
		c5.632,0,10.199,4.567,10.199,10.199S196.36,55.077,190.727,55.077z"/>
	<path style="fill:#C63F00;" d="M232.543,55.077h-4.08c-5.632,0-10.199-4.567-10.199-10.199s4.567-10.199,10.199-10.199h4.08
		c5.632,0,10.199,4.567,10.199,10.199S238.176,55.077,232.543,55.077z"/>
</g>
<g>
</g>
<g>
</g>
<g>
</g>
<g>
</g>
<g>
</g>
<g>
</g>
<g>
</g>
<g>
</g>
<g>
</g>
<g>
</g>
<g>
</g>
<g>
</g>
<g>
</g>
<g>
</g>
<g>
</g>
</svg>
